<svg width="42" height="42" viewBox="0 0 42 42" fill="none" xmlns="http://www.w3.org/2000/svg">
<path d="M18.9165 31.4167H23.0832V23.0833H31.4165V18.9167H23.0832V10.5833H18.9165V18.9167H10.5832V23.0833H18.9165V31.4167ZM20.9998 41.8333C18.1179 41.8333 15.4096 41.2951 12.8748 40.2187C10.3401 39.1076 8.13525 37.6146 6.26025 35.7396C4.38525 33.8646 2.8922 31.6597 1.78109 29.125C0.704698 26.5903 0.166504 23.8819 0.166504 21C0.166504 18.118 0.704698 15.4097 1.78109 12.875C2.8922 10.3403 4.38525 8.13541 6.26025 6.26041C8.13525 4.38541 10.3401 2.90971 12.8748 1.83332C15.4096 0.722212 18.1179 0.166656 20.9998 0.166656C23.8818 0.166656 26.5901 0.722212 29.1248 1.83332C31.6596 2.90971 33.8644 4.38541 35.7394 6.26041C37.6144 8.13541 39.0901 10.3403 40.1665 12.875C41.2776 15.4097 41.8332 18.118 41.8332 21C41.8332 23.8819 41.2776 26.5903 40.1665 29.125C39.0901 31.6597 37.6144 33.8646 35.7394 35.7396C33.8644 37.6146 31.6596 39.1076 29.1248 40.2187C26.5901 41.2951 23.8818 41.8333 20.9998 41.8333ZM20.9998 37.6667C25.6526 37.6667 29.5936 36.0521 32.8228 32.8229C36.0519 29.5937 37.6665 25.6528 37.6665 21C37.6665 16.3472 36.0519 12.4062 32.8228 9.17707C29.5936 5.94791 25.6526 4.33332 20.9998 4.33332C16.3471 4.33332 12.4061 5.94791 9.17692 9.17707C5.94775 12.4062 4.33317 16.3472 4.33317 21C4.33317 25.6528 5.94775 29.5937 9.17692 32.8229C12.4061 36.0521 16.3471 37.6667 20.9998 37.6667Z" fill="#393E51"/>
</svg>
