<svg width="25" height="25" viewBox="0 0 25 25" fill="none" xmlns="http://www.w3.org/2000/svg">
<path d="M2.875 24.875C2.11875 24.875 1.47135 24.6057 0.932813 24.0672C0.394271 23.5286 0.125 22.8813 0.125 22.125V2.875C0.125 2.11875 0.394271 1.47135 0.932813 0.932813C1.47135 0.394271 2.11875 0.125 2.875 0.125H22.125C22.8813 0.125 23.5286 0.394271 24.0672 0.932813C24.6057 1.47135 24.875 2.11875 24.875 2.875V22.125C24.875 22.8813 24.6057 23.5286 24.0672 24.0672C23.5286 24.6057 22.8813 24.875 22.125 24.875H2.875ZM2.875 22.125H22.125V2.875H2.875V22.125Z" fill="white"/>
</svg>
