<svg width="16" height="16" viewBox="0 0 16 16" fill="none" xmlns="http://www.w3.org/2000/svg">
<path d="M8.00014 0.960022C7.29389 0.960022 6.72014 1.53377 6.72014 2.24002C6.72014 2.83502 7.13014 3.33127 7.68014 3.47502V4.48002H4.81014C3.39264 4.48002 2.24014 5.63252 2.24014 7.05002V8.32002H0.640137V12.16H2.24014V15.04H13.7601V12.16H15.3601V8.32002H13.7601V7.05002C13.7601 5.63252 12.6076 4.48002 11.1901 4.48002H8.32014V3.47502C8.87139 3.33127 9.28014 2.83502 9.28014 2.24002C9.28014 1.53377 8.70639 0.960022 8.00014 0.960022ZM8.00014 1.60002C8.35264 1.60002 8.64014 1.88752 8.64014 2.24002C8.64014 2.59252 8.35264 2.88002 8.00014 2.88002C7.64764 2.88002 7.36014 2.59252 7.36014 2.24002C7.36014 1.88752 7.64764 1.60002 8.00014 1.60002ZM4.81014 5.12002H11.1901C12.2539 5.12002 13.1201 5.98627 13.1201 7.05002V14.4H11.2001V11.84H4.80014V14.4H2.88014V7.05002C2.88014 5.98627 3.74639 5.12002 4.81014 5.12002ZM5.92014 7.04002C5.12639 7.04002 4.48014 7.68627 4.48014 8.48002C4.48014 9.27377 5.12639 9.92002 5.92014 9.92002C6.71389 9.92002 7.36014 9.27377 7.36014 8.48002C7.36014 7.68627 6.71389 7.04002 5.92014 7.04002ZM10.0801 7.04002C9.28639 7.04002 8.64014 7.68627 8.64014 8.48002C8.64014 9.27377 9.28639 9.92002 10.0801 9.92002C10.8739 9.92002 11.5201 9.27377 11.5201 8.48002C11.5201 7.68627 10.8739 7.04002 10.0801 7.04002ZM5.92014 7.68002C6.36139 7.68002 6.72014 8.03877 6.72014 8.48002C6.72014 8.92127 6.36139 9.28002 5.92014 9.28002C5.47889 9.28002 5.12014 8.92127 5.12014 8.48002C5.12014 8.03877 5.47889 7.68002 5.92014 7.68002ZM10.0801 7.68002C10.5214 7.68002 10.8801 8.03877 10.8801 8.48002C10.8801 8.92127 10.5214 9.28002 10.0801 9.28002C9.63889 9.28002 9.28014 8.92127 9.28014 8.48002C9.28014 8.03877 9.63889 7.68002 10.0801 7.68002ZM1.28014 8.96002H2.24014V11.52H1.28014V8.96002ZM13.7601 8.96002H14.7201V11.52H13.7601V8.96002ZM5.44014 12.48H6.72014V14.4H5.44014V12.48ZM7.36014 12.48H8.64014V14.4H7.36014V12.48ZM9.28014 12.48H10.5601V14.4H9.28014V12.48Z" fill="#435792"/>
</svg>
