<svg width="24" height="28" viewBox="0 0 24 28" fill="none" xmlns="http://www.w3.org/2000/svg">
<path d="M2.66667 3.5C2.66667 2.85567 3.26362 2.33333 4 2.33333H12.6667V8.75C12.6667 9.39433 13.2636 9.91667 14 9.91667H21.3333V24.5C21.3333 25.1443 20.7364 25.6667 20 25.6667H4C3.26362 25.6667 2.66667 25.1443 2.66667 24.5V3.5ZM19.4477 7.58333H15.3333V3.98325L19.4477 7.58333ZM4 0C1.79086 0 0 1.567 0 3.5V24.5C0 26.433 1.79086 28 4 28H20C22.2091 28 24 26.433 24 24.5V8.75C24 8.44058 23.8595 8.14383 23.6095 7.92504L14.9428 0.341709C14.6928 0.122916 14.3536 0 14 0H4ZM6.66667 9.33333C5.93029 9.33333 5.33333 9.85567 5.33333 10.5C5.33333 11.1443 5.93029 11.6667 6.66667 11.6667H9.33333C10.0697 11.6667 10.6667 11.1443 10.6667 10.5C10.6667 9.85567 10.0697 9.33333 9.33333 9.33333H6.66667ZM5.33333 15.1667C5.33333 14.5223 5.93029 14 6.66667 14H16C16.7364 14 17.3333 14.5223 17.3333 15.1667C17.3333 15.811 16.7364 16.3333 16 16.3333H6.66667C5.93029 16.3333 5.33333 15.811 5.33333 15.1667ZM6.66667 18.6667C5.93029 18.6667 5.33333 19.189 5.33333 19.8333C5.33333 20.4777 5.93029 21 6.66667 21H16C16.7364 21 17.3333 20.4777 17.3333 19.8333C17.3333 19.189 16.7364 18.6667 16 18.6667H6.66667Z" fill="#393E51"/>
</svg>
