<svg width="37" height="47" viewBox="0 0 37 47" fill="none" xmlns="http://www.w3.org/2000/svg">
<path d="M32.2498 46.4167H4.74984C2.21853 46.4167 0.166504 44.3647 0.166504 41.8334V5.16669C0.166504 2.63539 2.21853 0.583357 4.74984 0.583357H20.7915C20.812 0.580694 20.8328 0.580694 20.8534 0.583357H20.8671C20.8888 0.590136 20.911 0.594742 20.9336 0.597107C21.1357 0.610062 21.3352 0.649353 21.5271 0.713982H21.5615H21.5959H21.6234C21.6657 0.743604 21.7055 0.776556 21.7425 0.812524C21.9922 0.923494 22.2197 1.07878 22.414 1.27086L36.164 15.0209C36.3561 15.2152 36.5114 15.4427 36.6223 15.6923C36.643 15.7427 36.659 15.7909 36.675 15.8436L36.698 15.9077C36.7619 16.0988 36.7997 16.2977 36.8102 16.499C36.8122 16.5218 36.8177 16.5442 36.8263 16.5654V16.5792C36.8301 16.5942 36.8324 16.6096 36.8332 16.625V41.8334C36.8332 43.0489 36.3503 44.2147 35.4907 45.0743C34.6312 45.9338 33.4654 46.4167 32.2498 46.4167ZM24.0548 28.0834V39.5417H26.209V34.8667H29.5548V32.9463H26.209V30.0107H29.9582V28.0834H24.0548ZM15.5757 28.0834V39.5417H18.3394C19.4988 39.5987 20.6215 39.1267 21.3919 38.2584C22.1823 37.2498 22.5782 35.9879 22.5057 34.7086V32.8523C22.5588 31.5865 22.1517 30.3442 21.3598 29.3552C20.6142 28.5065 19.5256 28.0392 18.3967 28.0834H15.5757ZM7.0415 28.0834V39.5417H9.19567V35.5107H10.6303C11.5882 35.5637 12.5239 35.209 13.2061 34.5344C13.8571 33.8066 14.1947 32.8513 14.1457 31.8761C14.1882 30.8774 13.8508 29.8997 13.2015 29.1398C12.5592 28.4275 11.6319 28.04 10.6738 28.0834H7.0415ZM20.7915 5.16669V16.625H32.2498L20.7915 5.16669ZM18.3761 37.6213H17.7298V30.0107H18.5136C19.0701 29.9778 19.6052 30.2299 19.9344 30.6798C20.2704 31.3748 20.4144 32.1471 20.3515 32.9165V34.9079C20.4018 35.6407 20.2429 36.3727 19.8932 37.0186C19.5176 37.457 18.9502 37.6824 18.3761 37.6213ZM10.6738 33.5834H9.19338V30.0107H10.6944C11.0691 30.0147 11.4154 30.2112 11.6111 30.5309C11.8591 30.9401 11.9788 31.4142 11.9548 31.8921C11.9836 32.3378 11.8652 32.7806 11.618 33.1525C11.39 33.4386 11.0392 33.5987 10.6738 33.5834Z" fill="#393E51"/>
</svg>
