<svg width="211" height="109" viewBox="0 0 211 109" fill="none" xmlns="http://www.w3.org/2000/svg">
<g filter="url(#filter0_d_44_236)">
<path d="M4 71.9844V0H23.6988V55.5238H41.4336V71.9844H4Z" fill="#435792"/>
<path d="M73.2553 66.518L72.6602 67.1936C72.2634 67.685 71.6485 68.2582 70.8153 68.9134C70.0218 69.5685 69.0894 70.2237 68.0182 70.8788C66.9866 71.534 65.717 72.0868 64.2094 72.5372C62.7017 73.0285 61.1544 73.2742 59.5673 73.2742C48.855 73.2742 43.4989 67.8078 43.4989 56.875C43.4989 54.7458 43.8758 52.8008 44.6296 51.0401C45.3834 49.2385 46.3555 47.7234 47.5457 46.495C48.736 45.2666 50.1643 44.1815 51.8307 43.2398C53.497 42.257 55.1634 41.4995 56.8298 40.9672C58.5358 40.394 60.3212 39.9231 62.1859 39.5546C64.0506 39.186 65.717 38.9404 67.185 38.8175C68.653 38.6947 70.0614 38.6333 71.4104 38.6333V37.5277C71.4104 35.0299 70.7558 33.2692 69.4465 32.2456C68.1769 31.2219 66.1138 30.7101 63.2571 30.7101C60.7973 30.7101 58.2382 31.0172 55.58 31.6314C52.9217 32.2046 50.8388 32.9007 49.3311 33.7197L45.5223 25.3665C48.2202 23.5649 51.7315 21.9884 56.0561 20.6372C60.3807 19.245 64.7846 18.5489 69.2679 18.5489C73.2355 18.5489 76.5087 18.9583 79.0876 19.7773C81.6665 20.5553 83.7494 21.9065 85.3364 23.831C86.9631 25.7146 88.1137 28.1304 88.7882 31.0786C89.4626 33.9858 89.7999 37.6915 89.7999 42.1956V67.1936L91.4662 71.9844H75.1597L73.2553 66.518ZM68.5538 62.4643C69.0696 62.4643 69.5457 62.3619 69.9821 62.1572C70.4582 61.9115 70.8153 61.6863 71.0533 61.4816C71.2914 61.2359 71.4104 61.113 71.4104 61.113V46.3722C68.9902 46.3722 67.066 47.0683 65.6377 48.4605C64.2093 49.8117 63.4952 51.9205 63.4952 54.7868C63.4952 59.9051 65.1814 62.4643 68.5538 62.4643Z" fill="#435792"/>
<path d="M124.846 71.9844H106.695L91.5192 19.7773H113.003L120.204 53.067L125.62 30.2187L122.823 19.7773H143.414L149.485 53.067L157.519 19.7773H170.255L155.019 71.9844H136.928L131.095 50.4873L124.846 71.9844Z" fill="#435792"/>
<path d="M188.824 73.289C188.824 73.7088 188.722 74.0537 188.518 74.3236C188.315 74.5935 188.054 74.8035 187.734 74.9534C187.443 75.1334 187.109 75.2533 186.731 75.3133C186.383 75.4033 186.063 75.4483 185.772 75.4483C184.755 75.4483 183.869 75.1484 183.113 74.5486C182.358 73.9488 181.704 73.169 181.152 72.2093C180.6 71.2796 180.149 70.215 179.801 69.0153C179.452 67.7857 179.161 66.5711 178.929 65.3715C178.697 64.1419 178.522 62.9723 178.406 61.8627C178.29 60.723 178.203 59.7483 178.144 58.9386C177.883 56.1495 177.694 53.3154 177.578 50.4364C177.491 47.5573 177.447 44.7082 177.447 41.8891C177.447 34.1816 177.709 26.5491 178.232 18.9915C178.232 18.8716 178.232 18.7366 178.232 18.5867C178.261 18.4367 178.275 18.2868 178.275 18.1368C178.304 17.507 178.333 16.7872 178.362 15.9775C178.391 15.1378 178.435 14.313 178.493 13.5033C178.551 12.6936 178.609 11.9588 178.667 11.299C178.755 10.6092 178.856 10.1294 178.973 9.85949V9.90448C179.089 9.48461 179.249 9.16971 179.452 8.95978C179.655 8.74985 180.004 8.64488 180.498 8.64488C181.544 8.64488 182.431 9.00477 183.157 9.72453C183.884 10.4443 184.247 11.344 184.247 12.4237C184.247 12.6636 184.232 12.9035 184.203 13.1434C184.203 13.3534 184.189 13.5633 184.16 13.7732C184.131 13.9832 184.102 14.1931 184.072 14.403C184.072 14.583 184.072 14.7479 184.072 14.8979C183.985 16.0675 183.913 17.2371 183.854 18.4067C183.825 19.5464 183.782 20.701 183.724 21.8706C183.578 24.4498 183.462 27.0289 183.375 29.6081C183.317 32.1573 183.288 34.7364 183.288 37.3456C183.288 38.4552 183.302 39.9098 183.331 41.7092C183.36 43.5086 183.419 45.473 183.506 47.6023C183.593 49.7016 183.709 51.8759 183.854 54.1252C184.029 56.3744 184.247 58.5187 184.508 60.5581C184.77 62.5974 185.075 64.4418 185.424 66.0913C185.801 67.7408 186.237 69.0153 186.731 69.9151C186.993 70.035 187.24 70.2299 187.472 70.4999C187.734 70.7398 187.952 71.0247 188.126 71.3546C188.33 71.6545 188.489 71.9694 188.606 72.2993C188.751 72.6592 188.824 72.9891 188.824 73.289Z" fill="#435792"/>
<path d="M206.564 75.0434C206.564 76.273 206.521 77.5626 206.433 78.9121C206.346 80.2617 206.201 81.6113 205.997 82.9608C205.794 84.3404 205.518 85.69 205.169 87.0095C204.821 88.3291 204.385 89.5587 203.862 90.6983C202.99 92.3778 201.886 93.8473 200.549 95.1069C199.241 96.3965 197.803 97.4761 196.234 98.3459C194.664 99.2156 192.994 99.8754 191.221 100.325C189.448 100.775 187.661 101 185.86 101C185.598 101 185.293 100.985 184.944 100.955C184.566 100.925 184.203 100.85 183.854 100.73C183.506 100.64 183.215 100.475 182.983 100.235C182.75 99.9953 182.634 99.6654 182.634 99.2456C182.634 99.0656 182.678 98.8857 182.765 98.7057C182.765 98.6458 182.779 98.5858 182.808 98.5258C182.808 98.4958 182.808 98.4658 182.808 98.4358C183.012 97.836 183.244 97.3562 183.506 96.9963C183.767 96.6364 184.072 96.3515 184.421 96.1416C184.741 95.9616 185.133 95.8267 185.598 95.7367C186.034 95.6767 186.542 95.6167 187.124 95.5568C188.983 95.4668 190.741 95.0169 192.398 94.2072V94.2522C194.287 93.2925 195.769 92.0929 196.844 90.6534C197.948 89.2438 198.776 87.6693 199.328 85.9299C199.91 84.2204 200.273 82.406 200.418 80.4866C200.563 78.5673 200.636 76.6329 200.636 74.6835C200.636 74.2337 200.636 73.9038 200.636 73.6938C200.636 73.4839 200.636 73.289 200.636 73.109C200.636 72.9591 200.636 72.7791 200.636 72.5692C200.636 72.3593 200.622 72.0294 200.592 71.5795C199.575 72.3893 198.515 72.7941 197.411 72.7941C196.132 72.7941 195.042 72.4342 194.141 71.7145C193.27 70.9647 192.529 70.005 191.918 68.8354C191.337 67.6358 190.872 66.2862 190.524 64.7867C190.204 63.2572 189.957 61.7127 189.783 60.1532C189.637 58.5637 189.536 57.0192 189.477 55.5197C189.448 54.0202 189.434 52.6856 189.434 51.516V49.6266C189.434 48.0371 189.434 46.4776 189.434 44.9481C189.463 43.4186 189.521 41.8891 189.608 40.3596V39.6848C189.608 39.325 189.608 38.9651 189.608 38.6052C189.608 38.2453 189.637 37.9004 189.695 37.5705C189.812 37.0907 189.971 36.7458 190.175 36.5359C190.407 36.3259 190.771 36.221 191.265 36.221C191.497 36.221 191.715 36.236 191.918 36.2659C192.151 36.2959 192.383 36.3409 192.616 36.4009C193.168 36.6408 193.604 36.8957 193.923 37.1657C194.243 37.4056 194.476 37.7055 194.621 38.0654C194.795 38.3953 194.897 38.7851 194.926 39.235C194.984 39.6848 195.013 40.2097 195.013 40.8095V46.8375C195.013 47.5573 195.013 48.457 195.013 49.5367C195.042 50.5863 195.086 51.7409 195.144 53.0005C195.202 54.2601 195.275 55.5647 195.362 56.9143C195.449 58.2638 195.58 59.5684 195.754 60.828C195.929 62.0876 196.132 63.2422 196.364 64.2919C196.597 65.3415 196.887 66.2113 197.236 66.901C197.759 65.7314 198.21 64.3669 198.587 62.8074C198.965 61.2179 199.27 59.5234 199.503 57.724C199.764 55.8946 199.953 54.0202 200.069 52.1008C200.215 50.1814 200.316 48.307 200.375 46.4776C200.462 44.6482 200.505 42.9238 200.505 41.3043C200.534 39.6549 200.549 38.2153 200.549 36.9857C200.549 36.6858 200.549 36.3709 200.549 36.041C200.578 35.6811 200.651 35.3662 200.767 35.0963C200.883 34.7964 201.043 34.5565 201.246 34.3766C201.479 34.1966 201.813 34.1066 202.249 34.1066C202.452 34.1066 202.67 34.1366 202.903 34.1966C203.164 34.2566 203.382 34.3166 203.557 34.3766C203.615 34.3766 203.673 34.3916 203.731 34.4215C203.818 34.4215 203.891 34.4215 203.949 34.4215C204.356 34.5715 204.748 34.7214 205.126 34.8714C205.503 35.0214 205.823 35.2163 206.085 35.4562C206.375 35.6661 206.593 35.951 206.738 36.3109C206.913 36.6708 207 37.1357 207 37.7055C207 38.3953 206.985 39.19 206.956 40.0897C206.956 40.9594 206.927 41.8741 206.869 42.8338C206.84 43.7935 206.797 44.7382 206.738 45.6679C206.68 46.5676 206.622 47.3773 206.564 48.0971L206.39 49.6716C206.332 50.0915 206.288 50.5113 206.259 50.9312C206.23 51.3511 206.215 51.7409 206.215 52.1008C206.215 54.0202 206.23 55.9396 206.259 57.859C206.288 59.7483 206.332 61.6527 206.39 63.5721C206.448 65.4915 206.491 67.4109 206.521 69.3302C206.55 71.2196 206.564 73.124 206.564 75.0434Z" fill="#435792"/>
</g>
<defs>
<filter id="filter0_d_44_236" x="0" y="0" width="211" height="109" filterUnits="userSpaceOnUse" color-interpolation-filters="sRGB">
<feFlood flood-opacity="0" result="BackgroundImageFix"/>
<feColorMatrix in="SourceAlpha" type="matrix" values="0 0 0 0 0 0 0 0 0 0 0 0 0 0 0 0 0 0 127 0" result="hardAlpha"/>
<feOffset dy="4"/>
<feGaussianBlur stdDeviation="2"/>
<feComposite in2="hardAlpha" operator="out"/>
<feColorMatrix type="matrix" values="0 0 0 0 0 0 0 0 0 0 0 0 0 0 0 0 0 0 0.25 0"/>
<feBlend mode="normal" in2="BackgroundImageFix" result="effect1_dropShadow_44_236"/>
<feBlend mode="normal" in="SourceGraphic" in2="effect1_dropShadow_44_236" result="shape"/>
</filter>
</defs>
</svg>
