<svg width="51" height="51" viewBox="0 0 51 51" fill="none" xmlns="http://www.w3.org/2000/svg">
<path fill-rule="evenodd" clip-rule="evenodd" d="M25.5 6.375C14.9376 6.375 6.375 14.9376 6.375 25.5C6.375 36.0624 14.9376 44.625 25.5 44.625H35.0625C38.0329 44.625 39.5181 44.625 40.6896 44.1397C42.2517 43.4927 43.4927 42.2517 44.1397 40.6896C44.625 39.5181 44.625 38.0329 44.625 35.0625V25.5C44.625 14.9376 36.0624 6.375 25.5 6.375ZM25.5 32.8755C24.9477 32.8755 24.5 32.4278 24.5 31.8755V26.5H19.125C18.5727 26.5 18.125 26.0523 18.125 25.5C18.125 24.9477 18.5727 24.5 19.125 24.5H24.5V19.1255C24.5 18.5732 24.9477 18.1255 25.5 18.1255C26.0523 18.1255 26.5 18.5732 26.5 19.1255V24.5H31.875C32.4273 24.5 32.875 24.9477 32.875 25.5C32.875 26.0523 32.4273 26.5 31.875 26.5H26.5V31.8755C26.5 32.4278 26.0523 32.8755 25.5 32.8755Z" fill="#435792"/>
</svg>
