<svg width="52" height="51" viewBox="0 0 52 51" fill="none" xmlns="http://www.w3.org/2000/svg">
<path fill-rule="evenodd" clip-rule="evenodd" d="M11.2919 9.08579C10.7061 9.67157 10.7061 10.6144 10.7061 12.5V40.625C10.7061 42.5106 10.7061 43.4534 11.2919 44.0392C11.8777 44.625 12.8205 44.625 14.7061 44.625H36.6832C38.5688 44.625 39.5116 44.625 40.0974 44.0392C40.6832 43.4534 40.6832 42.5106 40.6832 40.625V12.5C40.6832 10.6144 40.6832 9.67157 40.0974 9.08579C39.5116 8.5 38.5688 8.5 36.6832 8.5H14.7061C12.8205 8.5 11.8777 8.5 11.2919 9.08579ZM19.271 18.125C18.7187 18.125 18.271 18.5727 18.271 19.125C18.271 19.6773 18.7187 20.125 19.271 20.125H32.1183C32.6706 20.125 33.1183 19.6773 33.1183 19.125C33.1183 18.5727 32.6706 18.125 32.1183 18.125H19.271ZM19.271 26.625C18.7187 26.625 18.271 27.0727 18.271 27.625C18.271 28.1773 18.7187 28.625 19.271 28.625H32.1183C32.6706 28.625 33.1183 28.1773 33.1183 27.625C33.1183 27.0727 32.6706 26.625 32.1183 26.625H19.271ZM19.271 35.125C18.7187 35.125 18.271 35.5727 18.271 36.125C18.271 36.6773 18.7187 37.125 19.271 37.125H27.8359C28.3882 37.125 28.8359 36.6773 28.8359 36.125C28.8359 35.5727 28.3882 35.125 27.8359 35.125H19.271Z" fill="#435792"/>
</svg>
