<svg width="52" height="51" viewBox="0 0 52 51" fill="none" xmlns="http://www.w3.org/2000/svg">
<path d="M6.42365 14.875H40.7156C41.8792 14.875 42.4609 14.875 42.9299 15.0342C43.8131 15.334 44.5066 16.0275 44.8064 16.9107C44.9656 17.3797 44.9656 17.9615 44.9656 19.125H6.42365V14.875Z" fill="#435792"/>
<path d="M6.42365 23.375H44.9656V37.7C44.9656 39.3802 44.9656 40.2202 44.6386 40.862C44.351 41.4265 43.8921 41.8854 43.3276 42.173C42.6859 42.5 41.8458 42.5 40.1656 42.5H11.2236C9.54349 42.5 8.70341 42.5 8.06167 42.173C7.49719 41.8854 7.03825 41.4265 6.75063 40.862C6.42365 40.2202 6.42365 39.3802 6.42365 37.7V23.375Z" fill="#435792"/>
<path d="M6.42365 12.5C6.42365 10.6144 6.42365 9.67157 7.00943 9.08579C7.59522 8.5 8.53803 8.5 10.4236 8.5H19.7642C20.5775 8.5 20.9841 8.5 21.3501 8.65079C21.7161 8.80158 22.0047 9.088 22.5819 9.66084L27.8359 14.875H6.42365V12.5Z" fill="#435792"/>
</svg>
